<svg width="179" height="29" viewBox="0 0 179 29" fill="none" xmlns="http://www.w3.org/2000/svg">
<g clip-path="url(#clip0_145_107)">
<path d="M27.8199 14.37C27.2899 13.53 26.6799 12.74 25.9799 12.02C25.4399 11.46 24.8499 10.93 24.2299 10.47C23.2999 9.76003 22.2899 9.17003 21.1799 8.70003C19.3699 7.91003 17.3499 7.53003 15.1399 7.53003C12.9299 7.53003 10.9099 7.91003 9.08988 8.70003C8.40988 8.99003 7.74988 9.33003 7.12988 9.72003C7.13988 9.75003 7.16988 9.79003 7.17988 9.81003C7.58988 10.61 8.05988 11.27 8.61988 11.83C9.17988 12.39 9.79988 12.87 10.4499 13.22C10.7499 13.4 11.0099 13.55 11.2899 13.65C12.4599 13.2 13.7299 12.98 15.1399 12.98C16.5499 12.98 17.8199 13.2 18.9899 13.65C19.0999 13.69 19.1999 13.73 19.3099 13.77C19.7199 13.94 20.0999 14.14 20.4699 14.36C21.2599 14.79 21.9499 15.34 22.5799 15.98C23.2399 16.66 23.7999 17.42 24.2299 18.27C24.4099 18.6 24.5699 18.95 24.7199 19.31C24.7499 19.38 24.7699 19.44 24.7899 19.51C25.2199 20.65 25.4499 21.9 25.4699 23.24V28.16H30.2799V23.24C30.2699 20.99 29.8999 18.92 29.1599 17.03C28.7899 16.08 28.3499 15.2 27.8199 14.38V14.37Z" fill="url(#paint0_linear_145_107)"/>
<path d="M3.35 17.6599C2.75 17.0399 2.19 16.3599 1.71 15.6499C1.5 16.0799 1.3 16.5199 1.12 16.9799C0.38 18.8899 0.01 20.9699 0.01 23.2299H0V28.1499H4.81V23.5299C4.81 22.0599 5.03 20.7199 5.49 19.4999C5.41 19.4499 5.33 19.3799 5.25 19.3299C4.59 18.8399 3.96 18.2899 3.35 17.6599Z" fill="url(#paint1_linear_145_107)"/>
<path d="M0 0V5.46H0.01V5.5C0.01 7.78 0.38 9.86 1.12 11.77C1.49 12.7 1.92 13.57 2.43 14.37C2.97 15.22 3.6 16.02 4.29 16.75C4.84 17.31 5.42 17.83 6.04 18.29C6.97 18.99 7.98 19.58 9.09 20.05C10.19 20.52 11.36 20.84 12.59 21.03V28.17H17.4V21.07C18.74 20.89 20.01 20.56 21.19 20.05C21.87 19.76 22.53 19.42 23.15 19.03C23.14 18.99 23.11 18.96 23.1 18.93C22.72 18.19 22.23 17.54 21.64 16.92C21.06 16.34 20.47 15.9 19.84 15.54C19.52 15.36 19.26 15.21 18.99 15.09C17.82 15.55 16.53 15.77 15.16 15.77C13.79 15.77 12.49 15.55 11.33 15.09C11.21 15.06 11.11 15.01 11 14.97C10.59 14.8 10.21 14.6 9.84 14.38C9.05 13.95 8.34 13.4 7.71 12.76C7.04 12.09 6.49 11.32 6.06 10.46C5.88 10.13 5.72 9.79 5.57 9.44C5.54 9.37 5.52 9.31 5.5 9.24C5.07 8.1 4.86 6.84 4.83 5.47H4.82V4.93H25.46V5.47C25.43 6.85 25.22 8.11 24.78 9.25C24.87 9.32 24.95 9.37 25.03 9.43C25.69 9.92 26.33 10.48 26.92 11.11C27.52 11.73 28.06 12.4 28.55 13.09C28.76 12.64 28.97 12.2 29.15 11.72C29.89 9.8 30.27 7.73 30.27 5.46V0H0Z" fill="url(#paint2_linear_145_107)"/>
<path d="M42.1902 8.2499C42.9002 7.5499 43.7502 6.9999 44.7202 6.6199C45.6902 6.2399 46.7602 6.0399 47.9402 6.0399C49.1202 6.0399 50.1702 6.2599 51.1702 6.6999C52.1702 7.1399 53.0902 7.7899 53.9202 8.6699L56.6102 6.1399C55.5602 4.8999 54.2802 3.9699 52.7702 3.3399C51.2502 2.7099 49.5802 2.3999 47.7502 2.3999C46.0202 2.3999 44.4302 2.6799 42.9802 3.2499C41.5302 3.8199 40.2602 4.6199 39.1702 5.6699C38.0802 6.7199 37.2402 7.9299 36.6402 9.3199C36.0402 10.7099 35.7402 12.2399 35.7402 13.9299C35.7402 15.6199 36.0402 17.1499 36.6402 18.5399C37.2402 19.9299 38.0702 21.1399 39.1502 22.1899C40.2302 23.2299 41.4902 24.0399 42.9402 24.6099C44.3902 25.1699 45.9802 25.4599 47.7102 25.4599C49.5702 25.4599 51.2502 25.1399 52.7702 24.4999C54.2802 23.8599 55.5602 22.9199 56.6102 21.6799L53.9202 19.1499C53.0902 20.0499 52.1702 20.7099 51.1702 21.1499C50.1702 21.5899 49.0902 21.8099 47.9402 21.8099C46.7902 21.8099 45.6902 21.6199 44.7202 21.2299C43.7502 20.8499 42.9102 20.2999 42.1902 19.5999C41.4802 18.8999 40.9102 18.0599 40.5102 17.0999C40.1002 16.1399 39.9002 15.0799 39.9002 13.9299C39.9002 12.7799 40.1002 11.7199 40.5102 10.7599C40.9202 9.7999 41.4802 8.9699 42.1902 8.2599V8.2499Z" fill="url(#paint3_linear_145_107)"/>
<path d="M99.3301 15.2C99.3301 17.5 98.8401 19.18 97.8601 20.22C96.8801 21.26 95.4801 21.79 93.6701 21.79C91.8601 21.79 90.4501 21.27 89.4601 20.22C88.4701 19.17 87.9701 17.5 87.9701 15.2V2.71997H83.8101V15.32C83.8101 18.61 84.6801 21.11 86.4201 22.84C88.1601 24.57 90.5501 25.43 93.6001 25.43C96.6501 25.43 99.0801 24.57 100.82 22.84C102.56 21.11 103.43 18.61 103.43 15.32V2.71997H99.3301V15.2Z" fill="url(#paint4_linear_145_107)"/>
<path d="M112.71 2.71997L125.06 17.91V2.71997H129.15V25.12H125.73L113.41 9.92997V25.12H109.28V2.71997H112.71Z" fill="url(#paint5_linear_145_107)"/>
<path d="M140.05 8.2499C140.76 7.5499 141.61 6.9999 142.58 6.6199C143.55 6.2399 144.62 6.0399 145.8 6.0399C146.98 6.0399 148.03 6.2599 149.03 6.6999C150.03 7.1399 150.95 7.7899 151.78 8.6699L154.47 6.1399C153.43 4.8999 152.14 3.9699 150.63 3.3399C149.12 2.7099 147.44 2.3999 145.61 2.3999C143.88 2.3999 142.29 2.6799 140.84 3.2499C139.39 3.8199 138.12 4.6199 137.03 5.6699C135.94 6.7199 135.1 7.9299 134.5 9.3199C133.9 10.7099 133.6 12.2399 133.6 13.9299C133.6 15.6199 133.9 17.1499 134.5 18.5399C135.1 19.9299 135.93 21.1399 137.01 22.1899C138.09 23.2399 139.35 24.0399 140.8 24.6099C142.25 25.1699 143.84 25.4599 145.57 25.4599C147.43 25.4599 149.11 25.1399 150.63 24.4999C152.15 23.8599 153.42 22.9199 154.47 21.6799L151.78 19.1499C150.95 20.0499 150.03 20.7099 149.03 21.1499C148.03 21.5899 146.95 21.8099 145.8 21.8099C144.65 21.8099 143.55 21.6199 142.58 21.2299C141.61 20.8499 140.77 20.2999 140.05 19.5999C139.33 18.8999 138.78 18.0599 138.37 17.0999C137.96 16.1399 137.76 15.0799 137.76 13.9299C137.76 12.7799 137.96 11.7199 138.37 10.7599C138.78 9.7999 139.33 8.9699 140.05 8.2599V8.2499Z" fill="url(#paint6_linear_145_107)"/>
<path d="M78.2104 14.91C77.4403 16.08 76.3503 16.99 74.9304 17.63H74.9104C74.8554 17.655 74.7979 17.675 74.7404 17.695C74.6829 17.715 74.6254 17.735 74.5704 17.76L79.7304 25.12H75.2504L69.5903 16.99L68.4304 15.17H69.6303C71.4604 15.17 72.8403 14.78 73.7703 13.99C74.7003 13.2 75.1604 12.1 75.1604 10.69C75.1604 9.27997 74.7003 8.18997 73.7703 7.40997C72.8503 6.62997 71.4604 6.23997 69.6303 6.23997H64.7703V25.12H60.6104V2.71997H69.8304C71.8104 2.71997 73.5104 3.02997 74.9304 3.65997C76.3503 4.28997 77.4403 5.20997 78.2104 6.39997C78.9804 7.59997 79.3604 9.04997 79.3604 10.69C79.3604 12.33 78.9804 13.74 78.2104 14.91Z" fill="url(#paint7_linear_145_107)"/>
<path d="M158.47 25.12H162.63V2.71997H158.47V25.12Z" fill="url(#paint8_linear_145_107)"/>
<path d="M174.21 11.97V2.71997H178.34V25.12H174.21V15.52H166.79V11.97H174.21Z" fill="url(#paint9_linear_145_107)"/>
</g>
<defs>
<linearGradient id="paint0_linear_145_107" x1="31.2126" y1="8.62854" x2="8.72564" y2="28.2555" gradientUnits="userSpaceOnUse">
<stop stop-color="#FB7185"/>
<stop offset="0.5" stop-color="#D946EF"/>
<stop offset="1" stop-color="#6366F1"/>
</linearGradient>
<linearGradient id="paint1_linear_145_107" x1="5.7112" y1="16.3155" x2="-2.70227" y2="19.1896" gradientUnits="userSpaceOnUse">
<stop stop-color="#FB7185"/>
<stop offset="0.5" stop-color="#D946EF"/>
<stop offset="1" stop-color="#6366F1"/>
</linearGradient>
<linearGradient id="paint2_linear_145_107" x1="31.4896" y1="1.5" x2="0.991383" y2="26.9901" gradientUnits="userSpaceOnUse">
<stop stop-color="#FB7185"/>
<stop offset="0.5" stop-color="#D946EF"/>
<stop offset="1" stop-color="#6366F1"/>
</linearGradient>
<linearGradient id="paint3_linear_145_107" x1="232.5" y1="-19.4999" x2="34.5" y2="34.9999" gradientUnits="userSpaceOnUse">
<stop stop-color="#FB7185"/>
<stop offset="0.5" stop-color="#D946EF"/>
<stop offset="1" stop-color="#6366F1"/>
</linearGradient>
<linearGradient id="paint4_linear_145_107" x1="232.5" y1="-19.4999" x2="34.5" y2="34.9999" gradientUnits="userSpaceOnUse">
<stop stop-color="#FB7185"/>
<stop offset="0.5" stop-color="#D946EF"/>
<stop offset="1" stop-color="#6366F1"/>
</linearGradient>
<linearGradient id="paint5_linear_145_107" x1="232.5" y1="-19.4999" x2="34.5" y2="34.9999" gradientUnits="userSpaceOnUse">
<stop stop-color="#FB7185"/>
<stop offset="0.5" stop-color="#D946EF"/>
<stop offset="1" stop-color="#6366F1"/>
</linearGradient>
<linearGradient id="paint6_linear_145_107" x1="232.5" y1="-19.4999" x2="34.5" y2="34.9999" gradientUnits="userSpaceOnUse">
<stop stop-color="#FB7185"/>
<stop offset="0.5" stop-color="#D946EF"/>
<stop offset="1" stop-color="#6366F1"/>
</linearGradient>
<linearGradient id="paint7_linear_145_107" x1="232.5" y1="-19.4999" x2="34.5" y2="34.9999" gradientUnits="userSpaceOnUse">
<stop stop-color="#FB7185"/>
<stop offset="0.5" stop-color="#D946EF"/>
<stop offset="1" stop-color="#6366F1"/>
</linearGradient>
<linearGradient id="paint8_linear_145_107" x1="232.5" y1="-19.4999" x2="34.5" y2="34.9999" gradientUnits="userSpaceOnUse">
<stop stop-color="#FB7185"/>
<stop offset="0.5" stop-color="#D946EF"/>
<stop offset="1" stop-color="#6366F1"/>
</linearGradient>
<linearGradient id="paint9_linear_145_107" x1="232.5" y1="-19.4999" x2="34.5" y2="34.9999" gradientUnits="userSpaceOnUse">
<stop stop-color="#FB7185"/>
<stop offset="0.5" stop-color="#D946EF"/>
<stop offset="1" stop-color="#6366F1"/>
</linearGradient>
<clipPath id="clip0_145_107">
<rect width="178.34" height="28.15" fill="white"/>
</clipPath>
</defs>
</svg>
